PathFileType	4	(X/Y/Z)	/Users/niels/Desktop/University/Third Semester/Perception and Action/Exam/Gymnastics Motion Tracking/Code for Gym Tracking/Analyzed Data/Webcam_Backflip/id15_1_baseline_Sports2D/id15_1_baseline_Sports2D_px_person00.trc
DataRate	CameraRate	NumFrames	NumMarkers	Units	OrigDataRate	OrigDataStartFrame	OrigNumFrames
29.708737864077673	29.708737864077673	8	22	m	29.708737864077673	0	103
Frame#	Time	Hip			RHip			RKnee			RAnkle			RBigToe			RSmallToe			RHeel			LHip			LKnee			LAnkle			LBigToe			LSmallToe			LHeel			Neck			Head			Nose			RShoulder			RElbow			RWrist			LShoulder			LElbow			LWrist		
		X1	Y1	Z1	X2	Y2	Z2	X3	Y3	Z3	X4	Y4	Z4	X5	Y5	Z5	X6	Y6	Z6	X7	Y7	Z7	X8	Y8	Z8	X9	Y9	Z9	X10	Y10	Z10	X11	Y11	Z11	X12	Y12	Z12	X13	Y13	Z13	X14	Y14	Z14	X15	Y15	Z15	X16	Y16	Z16	X17	Y17	Z17	X18	Y18	Z18	X19	Y19	Z19	X20	Y20	Z20	X21	Y21	Z21	X22	Y22	Z22
0	0.0	0.8534715819000769	-0.5673609758451728	0.0	0.7457144459010183	-0.5877254367491915	0.0	0.7195102083811791	-0.6372213370154223	0.0	0.8155999642389405	-1.0013129043236284	0.0	0.8330765258228457	-1.076924876326886	0.0	0.7835617757647401	-1.0885814917324395	0.0	0.8359809381254698	-1.0100766091657631	0.0	0.9583259539238009	-0.5906512044940235	0.0	0.9670411867688704	-0.6110164345014337	0.0	0.8883754385848861	-1.0100446179037952	0.0	0.868010891272634	-1.0652753583798307	0.0	0.9262542406461312	-1.0681965732956091	0.0	0.8796404579189285	-1.0275308195428396	0.0	0.8651317318322967	-0.2993681303886763	0.0	0.8796619533735976	-0.12453510509354541	0.0	0.8738566335114043	-0.2935437160452354	0.0	0.6467225563353007	-0.2935632334892231	0.0	0.6000487877072663	-0.5701808953582411	0.0	0.5358552986820123	-0.8730089731186735	0.0	1.0806614026833599	-0.31103447707919113	0.0	1.0894260418805115	-0.5934808268576042	0.0	1.1360916482088341	-0.9166208109310835	0.0
1	0.03366013071895425	0.8607672910625356	-0.5261873899659752	0.0	0.7581233163623348	-0.5441959200747352	0.0	0.7302897768629767	-0.6073171790717347	0.0	0.8142845960930469	-1.0018660866782498	0.0	0.8313217412983398	-1.082879931936149	0.0	0.7773764691771738	-1.0858860312043257	0.0	0.8337238260720821	-1.0178200977440692	0.0	0.9608238837488174	-0.5484925451239254	0.0	0.9616794782436767	-0.588615711373864	0.0	0.8885302990037613	-1.008533691727718	0.0	0.8590759197624427	-1.0753077233913484	0.0	0.9213705019890536	-1.075701127032897	0.0	0.8793584164580848	-1.0292260387346686	0.0	0.8720546921857428	-0.2452478287970547	0.0	0.8855997620588694	-0.07882811776253094	0.0	0.880003841165485	-0.2475272020660428	0.0	0.6604867924937924	-0.2582441653289628	0.0	0.6192199499046053	-0.5099987291335359	0.0	0.5632962791250903	-0.7967813278167218	0.0	1.0746624565215828	-0.2721403274097827	0.0	1.0792368189897226	-0.5329112660517482	0.0	1.1121553128542074	-0.8369024562559637	0.0
2	0.0673202614379085	0.867339152517615	-0.4849730129464196	0.0	0.7686375563083289	-0.501284326794511	0.0	0.7416474954088653	-0.5795354581432839	0.0	0.8128374710018799	-1.0014604551575832	0.0	0.8298575063832033	-1.0883341560744413	0.0	0.7716446148257888	-1.083945073532965	0.0	0.8313037593554454	-1.0232117109780534	0.0	0.9634904461039967	-0.5062993490390041	0.0	0.9583051818582607	-0.5667077154556489	0.0	0.890321557421161	-1.0058696384292636	0.0	0.8522613297174237	-1.0829671059888526	0.0	0.9184949976062565	-1.0815415667037451	0.0	0.881415005582323	-1.0293379021212812	0.0	0.8786432107216465	-0.19476448896827062	0.0	0.8914453952538315	-0.040000921055764554	0.0	0.8860097966223507	-0.20260538261497954	0.0	0.6735511178735935	-0.2221712237919113	0.0	0.6379304189104887	-0.45443054038440095	0.0	0.5907017122993509	-0.7281682632057577	0.0	1.0694026529935345	-0.23323727260407143	0.0	1.0707398061081526	-0.4774024564941537	0.0	1.0930915089813034	-0.7654444709305568	0.0
3	0.10098039215686275	0.8730364595564754	-0.44450030428991777	0.0	0.7766287919515596	-0.45990279692499786	0.0	0.7535146026564364	-0.5556261110882292	0.0	0.8112079318873159	-0.9992295348197215	0.0	0.8283512794429024	-1.0925537186214225	0.0	0.7664849880696488	-1.0826217071563564	0.0	0.8285229855367077	-1.0248291652837924	0.0	0.9665751103662743	-0.4646836922222737	0.0	0.9579241079923222	-0.5464228861974608	0.0	0.8952955066323585	-1.0010653379248666	0.0	0.849939975209092	-1.086667306229277	0.0	0.9195061253309103	-1.084350871305716	0.0	0.8873788760113905	-1.0267567024706916	0.0	0.8845997480924935	-0.15046586230727	0.0	0.8968177974816353	-0.01128723083988721	0.0	0.891699741274736	-0.1604681864095752	0.0	0.6854261153857194	-0.18608164299428795	0.0	0.655409864807458	-0.4073652832213343	0.0	0.6172208290345732	-0.6728093998326988	0.0	1.0652504293661809	-0.19540746317573338	0.0	1.0653231207897327	-0.4304158687186269	0.0	1.0819762282620273	-0.7070029967060846	0.0
4	0.134640522875817	0.8781623539908213	-0.4065023631224306	0.0	0.7828021102073789	-0.4214424203890025	0.0	0.7651770430144531	-0.536976398074094	0.0	0.8094264984050638	-0.9943931831589543	0.0	0.8260010784850462	-1.0945435428232082	0.0	0.7618246682257944	-1.0808483705836824	0.0	0.825456752519281	-1.022159974658891	0.0	0.970223694702456	-0.42507882239010525	0.0	0.9603682846034078	-0.529277385018383	0.0	0.904503087898621	-0.9932551223414327	0.0	0.854475348370988	-1.085725821772315	0.0	0.92602003133603	-1.0830550760122193	0.0	0.8976465583759564	-1.0207404034039462	0.0	0.8896857709097579	-0.11371896690006551	0.0	0.901147321788882	0.008076691202032115	0.0	0.896932490758974	-0.12314768675201428	0.0	0.6959103829151715	-0.15211066926464417	0.0	0.6708258987488362	-0.37096767570868144	0.0	0.6413709200190161	-0.6327016744152335	0.0	1.0621238627429774	-0.16065192982823673	0.0	1.063728124555569	-0.39330319726927193	0.0	1.0793907998571	-0.6622988192638569	0.0
5	0.16830065359477123	0.8829606364578523	-0.37372295795885146	0.0	0.7882615003762212	-0.38824843677577314	0.0	0.7758160258773281	-0.5250126984913356	0.0	0.8077492565416179	-0.9864373270797259	0.0	0.8223398721901584	-1.093414778047331	0.0	0.757822697111224	-1.0773842838181331	0.0	0.822716487955478	-1.0151841388942262	0.0	0.9742023025788141	-0.3901149286902634	0.0	0.9648186615891182	-0.5169963233844842	0.0	0.9179706342470305	-0.9819140292650949	0.0	0.8675861932418172	-1.0802731184182033	0.0	0.9391077087702956	-1.0770740382095632	0.0	0.9114034738870715	-1.0107800749001195	0.0	0.8938105504537367	-0.08559517241456947	0.0	0.9041599036168614	0.020490394345219373	0.0	0.9016622324380799	-0.09276771800570661	0.0	0.705112837750471	-0.12319457068281271	0.0	0.6836225566756475	-0.3459628587015832	0.0	0.661749898686907	-0.6069071415290829	0.0	1.059700873760229	-0.13160278229233063	0.0	1.0660298611361563	-0.3663422089010253	0.0	1.0841924491779955	-0.6301594648967892	0.0
6	0.2019607843137255	0.8873143641657899	-0.3493602856139384	0.0	0.7936322848012219	-0.36338642259599674	0.0	0.78493436497838	-0.5207868518983597	0.0	0.8067933263715107	-0.975474217748764	0.0	0.817774013205602	-1.0889062462525643	0.0	0.7550065778696189	-1.0716114534493997	0.0	0.8213081688199235	-1.0043372806779762	0.0	0.9778677763176857	-0.36328268563170607	0.0	0.970443230982502	-0.5113129798334061	0.0	0.9343521705963462	-0.9674105767487441	0.0	0.889201144884033	-1.0712957403095529	0.0	0.9584227782207743	-1.0668198632256944	0.0	0.9267785498031192	-0.9969837101238807	0.0	0.8970713890486539	-0.06722457517679073	0.0	0.9061901124839148	0.027813613201683927	0.0	0.905847257192758	-0.07121818730496156	0.0	0.7133542195931695	-0.10229645244587143	0.0	0.6935773174348666	-0.33250580598615753	0.0	0.6774617801465099	-0.5935317572422911	0.0	1.05766352923609	-0.11103857689274103	0.0	1.071801619211637	-0.3497120799191934	0.0	1.0946581249828828	-0.6092943028219932	0.0
7	0.23562091503267973	0.8909390755115116	-0.3358853775742084	0.0	0.798935208412374	-0.349427013144791	0.0	0.7924441005213485	-0.5246487847664986	0.0	0.8072977640009164	-0.96253011026603	0.0	0.8133924858287154	-1.0815723053048598	0.0	0.7539895676366126	-1.063816676948994	0.0	0.8221344513358733	-0.9908265607364742	0.0	0.9805421237220211	-0.34755599931768044	0.0	0.9766476907364254	-0.5138117917671582	0.0	0.9511874914337973	-0.9514604774834449	0.0	0.9164175429650614	-1.0606016143023684	0.0	0.9813575524327577	-1.0540405325625883	0.0	0.9414494288245923	-0.9807721244161386	0.0	0.89960988023974	-0.05946438955329841	0.0	0.9078913907484615	0.030801303420854596	0.0	0.9093274344563175	-0.059570402998004035	0.0	0.7209755846488913	-0.09172801495002213	0.0	0.7007271762632893	-0.3304386638197492	0.0	0.6879396600464975	-0.5908594252993736	0.0	1.055791990070081	-0.10107142333438836	0.0	1.0802588738340235	-0.34347883753360753	0.0	1.1093207184148226	-0.5985366291502878	0.0
